<svg width="169" height="140" viewBox="0 0 169 140" fill="none" xmlns="http://www.w3.org/2000/svg">
<g id="Frame" clip-path="url(#clip0_1499_120786)">
<g id="Group">
<path id="Vector" d="M124.149 96.2781H48.8764L35.5039 45.915H134.55C138.224 45.915 140.901 49.3959 139.959 52.947L129.558 92.1183C129.241 93.311 128.539 94.3655 127.561 95.1179C126.583 95.8702 125.383 96.2781 124.149 96.2781Z" fill="#F9AE6C"/>
<path id="Vector_2" d="M68.3231 111.433C61.3693 111.433 55.7324 117.07 55.7324 124.023C55.7324 130.977 61.3696 136.614 68.3231 136.614C75.2769 136.614 80.9138 130.977 80.9138 124.023C80.9138 117.07 75.2769 111.433 68.3231 111.433ZM68.3231 128.22C66.009 128.22 64.1261 126.338 64.1261 124.023C64.1261 121.709 66.0087 119.826 68.3231 119.826C70.6375 119.826 72.5201 121.709 72.5201 124.023C72.5201 126.338 70.6372 128.22 68.3231 128.22ZM107.639 111.433C100.685 111.433 95.0478 117.07 95.0478 124.023C95.0478 130.977 100.685 136.614 107.639 136.614C114.592 136.614 120.229 130.977 120.229 124.023C120.229 117.07 114.592 111.433 107.639 111.433ZM107.639 128.22C105.324 128.22 103.442 126.338 103.442 124.023C103.442 121.709 105.324 119.826 107.639 119.826C109.953 119.826 111.836 121.709 111.836 124.023C111.836 126.338 109.953 128.22 107.639 128.22Z" fill="#F6831F"/>
<path id="Vector_3" d="M134.552 45.916H39.1951C38.7606 45.916 38.3384 45.7715 37.995 45.5053C37.6517 45.2391 37.4065 44.8662 37.2983 44.4454L34.2798 32.716C33.8095 30.884 32.75 29.2573 31.2645 28.0864C29.779 26.9155 27.9498 26.2654 26.0586 26.2361C24.9531 26.2189 23.963 26.9894 23.8386 28.0881C23.804 28.3824 23.8321 28.6806 23.921 28.9633C24.01 29.2459 24.1578 29.5065 24.3547 29.7279C24.5516 29.9493 24.7931 30.1265 25.0634 30.2479C25.3337 30.3692 25.6267 30.432 25.923 30.432C26.9063 30.4317 27.8618 30.7587 28.6389 31.3613C29.416 31.964 29.9704 32.8081 30.2149 33.7606L49.4679 105.732C50.6877 110.326 54.8529 113.531 59.6086 113.531H123.18C124.328 113.531 125.331 112.645 125.365 111.497C125.373 111.216 125.326 110.936 125.224 110.674C125.122 110.412 124.969 110.173 124.774 109.972C124.578 109.77 124.344 109.61 124.085 109.5C123.826 109.391 123.548 109.334 123.267 109.334H59.6777C56.8045 109.334 54.2243 107.432 53.5216 104.646C53.5158 104.622 53.5093 104.6 53.5027 104.577L51.8027 98.7898C51.4344 97.5355 52.3745 96.2793 53.6818 96.2793H66.2345L63.4482 85.7859H118.771C119.93 85.7859 120.869 84.8466 120.869 83.6875C120.869 82.5284 119.93 81.5892 118.771 81.5892H62.3339L60.1054 73.1966H122.115C123.274 73.1966 124.214 72.2573 124.214 71.0982C124.214 69.9391 123.274 68.9998 122.115 68.9998H58.9909L57.8914 64.8586C57.5034 63.3974 57.5263 61.9446 57.8744 60.6048H125.457C126.616 60.6048 127.556 59.6655 127.556 58.5064C127.556 57.3473 126.616 56.408 125.457 56.408H60.4557C61.9188 55.1139 63.8458 54.3108 66.004 54.3108H139.599L139.96 52.9482C140.903 49.3966 138.226 45.916 134.552 45.916Z" fill="#F7933B"/>
<path id="Vector_4" d="M22.0054 32.5307H4.34738C2.02945 32.5307 0.150391 30.6516 0.150391 28.3337C0.150391 26.0158 2.02945 24.1367 4.34738 24.1367H22.0057C24.3113 24.1367 26.1852 25.9966 26.2024 28.3023C26.2197 30.6325 24.3357 32.5307 22.0054 32.5307Z" fill="#F6831F"/>
</g>
<g id="Group 3">
<circle id="Ellipse 7" cx="88.3333" cy="39.3333" r="22.3333" fill="#FDE4CE"/>
<path id="Vector_5" d="M96.7783 48.7505C95.8636 49.6652 94.3807 49.6652 93.466 48.7505L90.1029 45.3874L79.7258 35.0088C79.5078 34.7918 79.3349 34.5338 79.2171 34.2496C79.0992 33.9655 79.0387 33.6608 79.0391 33.3532C79.0387 33.0454 79.0992 32.7406 79.217 32.4563C79.3349 32.1719 79.5078 31.9137 79.7258 31.6965C80.6405 30.7828 82.1234 30.7828 83.0381 31.6965L91.2907 39.9504L96.7782 45.4381C97.6931 46.3528 97.6931 47.8356 96.7783 48.7505Z" fill="#F6831F"/>
<path id="Vector_6" d="M79.7256 48.7505C80.6403 49.6652 82.1232 49.6652 83.0379 48.7505L86.401 45.3874L96.7781 35.0088C96.9961 34.7918 97.169 34.5338 97.2868 34.2496C97.4047 33.9655 97.4652 33.6608 97.4648 33.3532C97.4652 33.0454 97.4047 32.7406 97.2869 32.4563C97.169 32.1719 96.9961 31.9137 96.7781 31.6965C95.8634 30.7828 94.3805 30.7828 93.4658 31.6965L85.2132 39.9504L79.7257 45.4381C78.8108 46.3528 78.8108 47.8356 79.7256 48.7505Z" fill="#F6831F"/>
</g>
</g>
<defs>
<clipPath id="clip0_1499_120786">
<rect width="168" height="140" fill="white" transform="translate(0.5)"/>
</clipPath>
</defs>
</svg>
